<svg width="243" height="32" viewBox="0 0 243 32" fill="none" xmlns="http://www.w3.org/2000/svg">
<rect y="24" width="243" height="8" rx="4" fill="#E8FFF3"/>
<rect y="24" width="140.899" height="8" rx="4" fill="#50CD89"/>
<path d="M5.04616 1.81818V12H3.2017V3.61293H3.14205L0.760653 5.13423V3.44389L3.29119 1.81818H5.04616ZM9.20366 10.608L9.13903 11.1548C9.09263 11.5724 9.00977 11.9967 8.89045 12.4276C8.77444 12.8617 8.65181 13.2611 8.52255 13.6257C8.39329 13.9903 8.28888 14.277 8.20934 14.4858H6.99627C7.04267 14.2836 7.10565 14.0085 7.18519 13.6605C7.26805 13.3125 7.3476 12.9214 7.42383 12.4872C7.50006 12.053 7.55143 11.6122 7.57795 11.1648L7.61275 10.608H9.20366ZM14.5668 12.1939C13.7481 12.1939 13.0455 11.9867 12.4588 11.5724C11.8755 11.1548 11.4264 10.5533 11.1115 9.76776C10.8 8.97893 10.6442 8.02936 10.6442 6.91903C10.6475 5.80871 10.8049 4.86411 11.1165 4.08523C11.4313 3.30303 11.8804 2.70644 12.4638 2.29545C13.0504 1.88447 13.7514 1.67898 14.5668 1.67898C15.3821 1.67898 16.0831 1.88447 16.6697 2.29545C17.2564 2.70644 17.7055 3.30303 18.017 4.08523C18.3319 4.86742 18.4893 5.81203 18.4893 6.91903C18.4893 8.03267 18.3319 8.9839 18.017 9.77273C17.7055 10.5582 17.2564 11.1581 16.6697 11.5724C16.0864 11.9867 15.3854 12.1939 14.5668 12.1939ZM14.5668 10.6378C15.2031 10.6378 15.7053 10.3246 16.0732 9.69815C16.4444 9.06842 16.63 8.14205 16.63 6.91903C16.63 6.11032 16.5455 5.43087 16.3764 4.88068C16.2074 4.33049 15.9688 3.91619 15.6605 3.63778C15.3523 3.35606 14.9877 3.2152 14.5668 3.2152C13.9337 3.2152 13.4332 3.53007 13.0653 4.1598C12.6974 4.78622 12.5118 5.70597 12.5085 6.91903C12.5052 7.73106 12.5864 8.41383 12.7521 8.96733C12.9212 9.52083 13.1598 9.93845 13.468 10.2202C13.7763 10.4986 14.1425 10.6378 14.5668 10.6378ZM19.9572 10.1108V8.64418L24.2775 1.81818H25.5005V3.90625H24.7548L21.8464 8.51491V8.59446H27.877V10.1108H19.9572ZM24.8145 12V9.66335L24.8343 9.0071V1.81818H26.5744V12H24.8145ZM33.0847 12.1392C32.3456 12.1392 31.6893 12.0149 31.1159 11.7663C30.5459 11.5178 30.0984 11.178 29.7736 10.7472C29.4521 10.313 29.293 9.82079 29.2963 9.2706C29.293 8.84304 29.3858 8.45028 29.5748 8.09233C29.7637 7.73438 30.0189 7.43608 30.3404 7.19744C30.6652 6.95549 31.0265 6.80137 31.4242 6.73509V6.66548C30.9005 6.54948 30.4763 6.28267 30.1515 5.86506C29.83 5.44413 29.6709 4.95857 29.6742 4.40838C29.6709 3.88471 29.8167 3.41738 30.1117 3.00639C30.4067 2.59541 30.811 2.27225 31.3248 2.03693C31.8385 1.7983 32.4251 1.67898 33.0847 1.67898C33.7376 1.67898 34.3193 1.7983 34.8297 2.03693C35.3435 2.27225 35.7478 2.59541 36.0428 3.00639C36.3411 3.41738 36.4902 3.88471 36.4902 4.40838C36.4902 4.95857 36.3262 5.44413 35.998 5.86506C35.6732 6.28267 35.254 6.54948 34.7402 6.66548V6.73509C35.138 6.80137 35.4959 6.95549 35.8141 7.19744C36.1356 7.43608 36.3908 7.73438 36.5797 8.09233C36.772 8.45028 36.8681 8.84304 36.8681 9.2706C36.8681 9.82079 36.7057 10.313 36.3809 10.7472C36.056 11.178 35.6086 11.5178 35.0385 11.7663C34.4718 12.0149 33.8205 12.1392 33.0847 12.1392ZM33.0847 10.7173C33.4659 10.7173 33.7973 10.6527 34.079 10.5234C34.3607 10.3909 34.5795 10.2053 34.7353 9.96662C34.891 9.72798 34.9706 9.45289 34.9739 9.14134C34.9706 8.81652 34.8861 8.52983 34.7203 8.28125C34.5579 8.02936 34.3342 7.83215 34.0492 7.68963C33.7675 7.54711 33.446 7.47585 33.0847 7.47585C32.7201 7.47585 32.3953 7.54711 32.1103 7.68963C31.8252 7.83215 31.5998 8.02936 31.4341 8.28125C31.2717 8.52983 31.1922 8.81652 31.1955 9.14134C31.1922 9.45289 31.2684 9.72798 31.4242 9.96662C31.58 10.2019 31.7987 10.3859 32.0804 10.5185C32.3655 10.651 32.7002 10.7173 33.0847 10.7173ZM33.0847 6.07884C33.3962 6.07884 33.6713 6.01586 33.91 5.88991C34.1519 5.76397 34.3425 5.5883 34.4817 5.36293C34.6209 5.13755 34.6922 4.87737 34.6955 4.58239C34.6922 4.29072 34.6226 4.03551 34.4867 3.81676C34.3508 3.5947 34.1619 3.42401 33.9199 3.30469C33.678 3.18205 33.3996 3.12074 33.0847 3.12074C32.7632 3.12074 32.4798 3.18205 32.2346 3.30469C31.9926 3.42401 31.8037 3.5947 31.6678 3.81676C31.5352 4.03551 31.4706 4.29072 31.4739 4.58239C31.4706 4.87737 31.5369 5.13755 31.6728 5.36293C31.812 5.58499 32.0025 5.76065 32.2445 5.88991C32.4898 6.01586 32.7698 6.07884 33.0847 6.07884ZM45.8082 4.36364V5.75568H41.4183V4.36364H45.8082ZM42.5021 2.53409H44.3018V9.70312C44.3018 9.94508 44.3383 10.1307 44.4112 10.2599C44.4875 10.3859 44.5869 10.4721 44.7095 10.5185C44.8321 10.5649 44.968 10.5881 45.1172 10.5881C45.2299 10.5881 45.3326 10.5798 45.4254 10.5632C45.5215 10.5466 45.5945 10.5317 45.6442 10.5185L45.9474 11.9254C45.8513 11.9586 45.7138 11.995 45.5348 12.0348C45.3591 12.0746 45.1437 12.0978 44.8885 12.1044C44.4377 12.1177 44.0317 12.0497 43.6705 11.9006C43.3092 11.7481 43.0225 11.5128 42.8104 11.1946C42.6016 10.8764 42.4988 10.4787 42.5021 10.0014V2.53409ZM50.5623 12.1491C49.8166 12.1491 49.1703 11.9851 48.6234 11.657C48.0765 11.3288 47.6523 10.8698 47.3507 10.2798C47.0524 9.68987 46.9032 9.00047 46.9032 8.21165C46.9032 7.42282 47.0524 6.73177 47.3507 6.13849C47.6523 5.54522 48.0765 5.08452 48.6234 4.75639C49.1703 4.42827 49.8166 4.2642 50.5623 4.2642C51.3081 4.2642 51.9544 4.42827 52.5012 4.75639C53.0481 5.08452 53.4707 5.54522 53.769 6.13849C54.0706 6.73177 54.2214 7.42282 54.2214 8.21165C54.2214 9.00047 54.0706 9.68987 53.769 10.2798C53.4707 10.8698 53.0481 11.3288 52.5012 11.657C51.9544 11.9851 51.3081 12.1491 50.5623 12.1491ZM50.5723 10.7074C50.9766 10.7074 51.3147 10.5964 51.5865 10.3743C51.8583 10.1489 52.0604 9.8473 52.193 9.46946C52.3289 9.09162 52.3968 8.67069 52.3968 8.20668C52.3968 7.73935 52.3289 7.31676 52.193 6.93892C52.0604 6.55777 51.8583 6.2545 51.5865 6.02912C51.3147 5.80374 50.9766 5.69105 50.5723 5.69105C50.158 5.69105 49.8133 5.80374 49.5382 6.02912C49.2664 6.2545 49.0626 6.55777 48.9267 6.93892C48.7941 7.31676 48.7278 7.73935 48.7278 8.20668C48.7278 8.67069 48.7941 9.09162 48.9267 9.46946C49.0626 9.8473 49.2664 10.1489 49.5382 10.3743C49.8133 10.5964 50.158 10.7074 50.5723 10.7074ZM66.1222 5.0696C66.0393 4.80114 65.925 4.56084 65.7791 4.34872C65.6366 4.13329 65.4643 3.94934 65.2621 3.79688C65.0632 3.64441 64.8345 3.53007 64.576 3.45383C64.3175 3.37429 64.0357 3.33452 63.7308 3.33452C63.1839 3.33452 62.6967 3.47206 62.2692 3.74716C61.8416 4.02225 61.5052 4.42661 61.2599 4.96023C61.018 5.49053 60.897 6.13684 60.897 6.89915C60.897 7.66809 61.018 8.31937 61.2599 8.85298C61.5019 9.3866 61.8383 9.79261 62.2692 10.071C62.7 10.3461 63.2005 10.4837 63.7706 10.4837C64.2876 10.4837 64.7351 10.3842 65.1129 10.1854C65.4941 9.98651 65.7874 9.70478 65.9929 9.3402C66.1984 8.9723 66.3011 8.54143 66.3011 8.04759L66.7188 8.11222H63.9545V6.67045H68.0859V7.89347C68.0859 8.76515 67.9003 9.51918 67.5291 10.1555C67.1579 10.7919 66.6475 11.2824 65.9979 11.6271C65.3482 11.9685 64.6025 12.1392 63.7607 12.1392C62.8227 12.1392 61.9991 11.9287 61.2898 11.5078C60.5838 11.0836 60.032 10.482 59.6342 9.70312C59.2398 8.92093 59.0426 7.9929 59.0426 6.91903C59.0426 6.09706 59.1586 5.36293 59.3906 4.71662C59.6259 4.07031 59.9541 3.52178 60.375 3.07102C60.7959 2.61695 61.2898 2.27225 61.8565 2.03693C62.4233 1.7983 63.0398 1.67898 63.706 1.67898C64.2694 1.67898 64.7947 1.76184 65.282 1.92756C65.7692 2.08996 66.2017 2.32197 66.5795 2.62358C66.9607 2.92519 67.2739 3.28314 67.5192 3.69744C67.7644 4.11174 67.9252 4.56913 68.0014 5.0696H66.1222ZM73.1209 12.1491C72.3752 12.1491 71.7289 11.9851 71.182 11.657C70.6351 11.3288 70.2109 10.8698 69.9093 10.2798C69.611 9.68987 69.4618 9.00047 69.4618 8.21165C69.4618 7.42282 69.611 6.73177 69.9093 6.13849C70.2109 5.54522 70.6351 5.08452 71.182 4.75639C71.7289 4.42827 72.3752 4.2642 73.1209 4.2642C73.8667 4.2642 74.513 4.42827 75.0598 4.75639C75.6067 5.08452 76.0293 5.54522 76.3276 6.13849C76.6292 6.73177 76.78 7.42282 76.78 8.21165C76.78 9.00047 76.6292 9.68987 76.3276 10.2798C76.0293 10.8698 75.6067 11.3288 75.0598 11.657C74.513 11.9851 73.8667 12.1491 73.1209 12.1491ZM73.1309 10.7074C73.5352 10.7074 73.8733 10.5964 74.1451 10.3743C74.4168 10.1489 74.619 9.8473 74.7516 9.46946C74.8875 9.09162 74.9554 8.67069 74.9554 8.20668C74.9554 7.73935 74.8875 7.31676 74.7516 6.93892C74.619 6.55777 74.4168 6.2545 74.1451 6.02912C73.8733 5.80374 73.5352 5.69105 73.1309 5.69105C72.7166 5.69105 72.3719 5.80374 72.0968 6.02912C71.825 6.2545 71.6212 6.55777 71.4853 6.93892C71.3527 7.31676 71.2864 7.73935 71.2864 8.20668C71.2864 8.67069 71.3527 9.09162 71.4853 9.46946C71.6212 9.8473 71.825 10.1489 72.0968 10.3743C72.3719 10.5964 72.7166 10.7074 73.1309 10.7074ZM80.505 12.1541C80.0211 12.1541 79.5852 12.0679 79.1974 11.8956C78.813 11.7199 78.508 11.4614 78.2827 11.12C78.0606 10.7786 77.9496 10.3577 77.9496 9.85724C77.9496 9.42637 78.0291 9.07008 78.1882 8.78835C78.3473 8.50663 78.5644 8.28125 78.8395 8.11222C79.1146 7.94318 79.4245 7.81558 79.7692 7.7294C80.1172 7.63991 80.4768 7.57528 80.848 7.53551C81.2955 7.48911 81.6584 7.44768 81.9368 7.41122C82.2152 7.37145 82.4174 7.31179 82.5433 7.23224C82.6726 7.14938 82.7372 7.02178 82.7372 6.84943V6.8196C82.7372 6.44508 82.6262 6.15507 82.4041 5.94957C82.1821 5.74408 81.8622 5.64134 81.4446 5.64134C81.0038 5.64134 80.6541 5.73745 80.3956 5.92969C80.1404 6.12192 79.968 6.34896 79.8786 6.6108L78.1982 6.37216C78.3307 5.90814 78.5495 5.52036 78.8544 5.20881C79.1593 4.89394 79.5322 4.65862 79.973 4.50284C80.4138 4.34375 80.901 4.2642 81.4347 4.2642C81.8026 4.2642 82.1688 4.30729 82.5334 4.39347C82.898 4.47964 83.2311 4.62216 83.5327 4.82102C83.8343 5.01657 84.0762 5.28338 84.2585 5.62145C84.4441 5.95952 84.5369 6.3821 84.5369 6.8892V12H82.8068V10.951H82.7472C82.6378 11.1631 82.4837 11.362 82.2848 11.5476C82.0893 11.7299 81.8423 11.8774 81.544 11.9901C81.2491 12.0994 80.9027 12.1541 80.505 12.1541ZM80.9723 10.8317C81.3336 10.8317 81.6468 10.7604 81.9119 10.6179C82.1771 10.4721 82.3809 10.2798 82.5234 10.0412C82.6693 9.80256 82.7422 9.54238 82.7422 9.26065V8.3608C82.6858 8.4072 82.5897 8.45028 82.4538 8.49006C82.3213 8.52983 82.1721 8.56463 82.0064 8.59446C81.8407 8.62429 81.6766 8.6508 81.5142 8.67401C81.3518 8.69721 81.2109 8.71709 81.0916 8.73366C80.8232 8.77012 80.5829 8.82978 80.3707 8.91264C80.1586 8.9955 79.9912 9.11151 79.8686 9.26065C79.746 9.40649 79.6847 9.59541 79.6847 9.82741C79.6847 10.1589 79.8056 10.4091 80.0476 10.5781C80.2895 10.7472 80.5978 10.8317 80.9723 10.8317ZM88.1463 1.81818V12H86.3466V1.81818H88.1463Z" fill="#3F4254"/>
<path d="M217.634 12.1392C217.146 12.1359 216.671 12.0514 216.207 11.8857C215.743 11.7166 215.325 11.4432 214.954 11.0653C214.583 10.6842 214.288 10.1787 214.069 9.54901C213.85 8.91596 213.742 8.1321 213.746 7.19744C213.746 6.32576 213.839 5.54853 214.024 4.86577C214.21 4.183 214.477 3.6063 214.825 3.13565C215.173 2.66169 215.592 2.30043 216.082 2.05185C216.576 1.80327 217.128 1.67898 217.738 1.67898C218.378 1.67898 218.944 1.80492 219.438 2.05682C219.935 2.30871 220.336 2.65341 220.641 3.09091C220.946 3.52509 221.135 4.01562 221.208 4.5625H219.393C219.301 4.1714 219.11 3.85985 218.822 3.62784C218.537 3.39252 218.175 3.27486 217.738 3.27486C217.032 3.27486 216.488 3.58144 216.107 4.1946C215.729 4.80776 215.539 5.64962 215.536 6.72017H215.605C215.768 6.4285 215.978 6.17827 216.237 5.96946C216.495 5.76065 216.787 5.59991 217.112 5.48722C217.44 5.37121 217.786 5.31321 218.151 5.31321C218.747 5.31321 219.282 5.45573 219.756 5.74077C220.234 6.0258 220.612 6.41856 220.89 6.91903C221.168 7.41619 221.306 7.98627 221.303 8.62926C221.306 9.29877 221.153 9.90033 220.845 10.4339C220.537 10.9643 220.108 11.3819 219.558 11.6868C219.007 11.9917 218.366 12.1425 217.634 12.1392ZM217.624 10.6477C217.985 10.6477 218.308 10.5599 218.593 10.3842C218.878 10.2086 219.103 9.97159 219.269 9.6733C219.435 9.375 219.516 9.04025 219.513 8.66903C219.516 8.30445 219.437 7.97467 219.274 7.67969C219.115 7.38471 218.895 7.15104 218.613 6.97869C218.331 6.80634 218.01 6.72017 217.648 6.72017C217.38 6.72017 217.13 6.77154 216.898 6.87429C216.666 6.97704 216.464 7.11955 216.291 7.30185C216.119 7.48082 215.983 7.68963 215.884 7.92827C215.787 8.16359 215.738 8.41548 215.734 8.68395C215.738 9.03859 215.821 9.36506 215.983 9.66335C216.145 9.96165 216.369 10.2003 216.654 10.3793C216.939 10.5582 217.262 10.6477 217.624 10.6477ZM222.983 12V10.6676L226.518 7.20241C226.856 6.86103 227.138 6.55776 227.363 6.29261C227.588 6.02746 227.757 5.7706 227.87 5.52202C227.983 5.27344 228.039 5.00829 228.039 4.72656C228.039 4.40507 227.966 4.12997 227.82 3.90128C227.674 3.66927 227.474 3.49029 227.219 3.36435C226.964 3.2384 226.674 3.17543 226.349 3.17543C226.014 3.17543 225.721 3.24503 225.469 3.38423C225.217 3.52012 225.021 3.71401 224.882 3.96591C224.746 4.2178 224.678 4.51776 224.678 4.86577H222.923C222.923 4.21946 223.071 3.65767 223.366 3.1804C223.661 2.70312 224.067 2.33357 224.584 2.07173C225.104 1.8099 225.701 1.67898 226.374 1.67898C227.056 1.67898 227.656 1.80658 228.173 2.06179C228.69 2.317 229.091 2.66667 229.376 3.1108C229.665 3.55492 229.809 4.06203 229.809 4.6321C229.809 5.01326 229.736 5.38778 229.59 5.75568C229.444 6.12358 229.188 6.53125 228.82 6.97869C228.455 7.42614 227.943 7.96804 227.283 8.6044L225.528 10.3892V10.4588H229.963V12H222.983ZM237.122 10.0909V9.55398C237.122 9.15956 237.205 8.79664 237.371 8.4652C237.54 8.13376 237.785 7.86695 238.107 7.66477C238.428 7.46259 238.817 7.36151 239.275 7.36151C239.746 7.36151 240.14 7.46259 240.458 7.66477C240.776 7.86364 241.017 8.12879 241.179 8.46023C241.345 8.79167 241.428 9.15625 241.428 9.55398V10.0909C241.428 10.4853 241.345 10.8482 241.179 11.1797C241.013 11.5111 240.77 11.7779 240.448 11.9801C240.13 12.1823 239.739 12.2834 239.275 12.2834C238.811 12.2834 238.418 12.1823 238.097 11.9801C237.775 11.7779 237.531 11.5111 237.366 11.1797C237.203 10.8482 237.122 10.4853 237.122 10.0909ZM238.42 9.55398V10.0909C238.42 10.3527 238.483 10.593 238.609 10.8118C238.735 11.0305 238.957 11.1399 239.275 11.1399C239.596 11.1399 239.817 11.0322 239.936 10.8168C240.059 10.598 240.12 10.3561 240.12 10.0909V9.55398C240.12 9.28883 240.062 9.04688 239.946 8.82812C239.83 8.60606 239.606 8.49503 239.275 8.49503C238.963 8.49503 238.743 8.60606 238.614 8.82812C238.484 9.04688 238.42 9.28883 238.42 9.55398ZM231.947 4.2642V3.72727C231.947 3.32955 232.031 2.96496 232.2 2.63352C232.369 2.30208 232.615 2.03693 232.936 1.83807C233.258 1.63589 233.647 1.5348 234.104 1.5348C234.572 1.5348 234.964 1.63589 235.283 1.83807C235.604 2.03693 235.846 2.30208 236.009 2.63352C236.171 2.96496 236.252 3.32955 236.252 3.72727V4.2642C236.252 4.66193 236.169 5.02651 236.004 5.35795C235.841 5.68608 235.599 5.94957 235.278 6.14844C234.956 6.3473 234.565 6.44673 234.104 6.44673C233.637 6.44673 233.243 6.3473 232.921 6.14844C232.603 5.94957 232.361 5.68442 232.195 5.35298C232.03 5.02154 231.947 4.65862 231.947 4.2642ZM233.254 3.72727V4.2642C233.254 4.52936 233.316 4.77131 233.438 4.99006C233.564 5.20549 233.786 5.31321 234.104 5.31321C234.423 5.31321 234.641 5.20549 234.761 4.99006C234.883 4.77131 234.945 4.52936 234.945 4.2642V3.72727C234.945 3.46212 234.887 3.22017 234.771 3.00142C234.655 2.77936 234.433 2.66832 234.104 2.66832C233.79 2.66832 233.569 2.77936 233.443 3.00142C233.317 3.22348 233.254 3.46544 233.254 3.72727ZM232.513 12L239.513 1.81818H240.756L233.756 12H232.513Z" fill="#A1A5B7"/>
</svg>
