<svg width="67" height="68" viewBox="0 0 67 68" fill="none" xmlns="http://www.w3.org/2000/svg">
<mask id="path-1-inside-1_12422_12784" fill="white">
<path d="M66.6333 34C66.6333 52.4279 51.8587 67.3667 33.6333 67.3667C15.4079 67.3667 0.633301 52.4279 0.633301 34C0.633301 15.5721 15.4079 0.633331 33.6333 0.633331C51.8587 0.633331 66.6333 15.5721 66.6333 34ZM12.1833 34C12.1833 45.9781 21.7868 55.6883 33.6333 55.6883C45.4798 55.6883 55.0833 45.9781 55.0833 34C55.0833 22.0219 45.4798 12.3117 33.6333 12.3117C21.7868 12.3117 12.1833 22.0219 12.1833 34Z"/>
</mask>
<path d="M66.6333 34C66.6333 52.4279 51.8587 67.3667 33.6333 67.3667C15.4079 67.3667 0.633301 52.4279 0.633301 34C0.633301 15.5721 15.4079 0.633331 33.6333 0.633331C51.8587 0.633331 66.6333 15.5721 66.6333 34ZM12.1833 34C12.1833 45.9781 21.7868 55.6883 33.6333 55.6883C45.4798 55.6883 55.0833 45.9781 55.0833 34C55.0833 22.0219 45.4798 12.3117 33.6333 12.3117C21.7868 12.3117 12.1833 22.0219 12.1833 34Z" stroke="#F1F1F2" stroke-width="40" mask="url(#path-1-inside-1_12422_12784)"/>
<mask id="path-2-inside-2_12422_12784" fill="white">
<path d="M54.1805 15.2787C56.5452 13.086 56.7093 9.34182 54.1383 7.39504C50.4705 4.61773 46.2504 2.61583 41.7344 1.53905C35.315 0.00846344 28.5859 0.415809 22.3981 2.70957C16.2102 5.00334 10.8415 9.0805 6.97088 14.4255C4.24783 18.1857 2.35225 22.4546 1.38094 26.9516C0.700097 30.1038 3.26506 32.8364 6.48765 32.958C9.71024 33.0796 12.3465 30.5169 13.321 27.4427C14.0173 25.2458 15.0632 23.1619 16.4295 21.2751C18.9455 17.8009 22.4351 15.1507 26.4572 13.6598C30.4793 12.1688 34.8532 11.9041 39.0258 12.8989C41.2918 13.4392 43.4433 14.3379 45.4034 15.5501C48.1461 17.2464 51.8158 17.4715 54.1805 15.2787Z"/>
</mask>
<path d="M54.1805 15.2787C56.5452 13.086 56.7093 9.34182 54.1383 7.39504C50.4705 4.61773 46.2504 2.61583 41.7344 1.53905C35.315 0.00846344 28.5859 0.415809 22.3981 2.70957C16.2102 5.00334 10.8415 9.0805 6.97088 14.4255C4.24783 18.1857 2.35225 22.4546 1.38094 26.9516C0.700097 30.1038 3.26506 32.8364 6.48765 32.958C9.71024 33.0796 12.3465 30.5169 13.321 27.4427C14.0173 25.2458 15.0632 23.1619 16.4295 21.2751C18.9455 17.8009 22.4351 15.1507 26.4572 13.6598C30.4793 12.1688 34.8532 11.9041 39.0258 12.8989C41.2918 13.4392 43.4433 14.3379 45.4034 15.5501C48.1461 17.2464 51.8158 17.4715 54.1805 15.2787Z" stroke="#F1416C" stroke-width="40" mask="url(#path-2-inside-2_12422_12784)"/>
<mask id="path-3-inside-3_12422_12784" fill="white">
<path d="M51.1814 55.1293C53.2165 57.5798 52.9198 61.2648 50.1709 62.8744C45.3656 65.688 39.9068 67.2464 34.2934 67.3599C26.7589 67.5123 19.3999 65.0527 13.4396 60.39C7.47936 55.7273 3.27697 49.1424 1.5311 41.7301C0.234427 36.2248 0.350835 30.5095 1.82476 25.1148C2.67219 22.0132 6.20439 20.7837 9.101 22.1794C11.9627 23.5583 13.0916 26.9933 12.5294 30.1197C12.0019 33.0526 12.0744 36.0847 12.7669 39.0245C13.9017 43.8426 16.6332 48.1227 20.5074 51.1535C24.3816 54.1842 29.165 55.783 34.0623 55.6839C36.9909 55.6247 39.8547 54.9605 42.4861 53.755C45.427 52.4077 49.1147 52.6408 51.1814 55.1293Z"/>
</mask>
<path d="M51.1814 55.1293C53.2165 57.5798 52.9198 61.2648 50.1709 62.8744C45.3656 65.688 39.9068 67.2464 34.2934 67.3599C26.7589 67.5123 19.3999 65.0527 13.4396 60.39C7.47936 55.7273 3.27697 49.1424 1.5311 41.7301C0.234427 36.2248 0.350835 30.5095 1.82476 25.1148C2.67219 22.0132 6.20439 20.7837 9.101 22.1794C11.9627 23.5583 13.0916 26.9933 12.5294 30.1197C12.0019 33.0526 12.0744 36.0847 12.7669 39.0245C13.9017 43.8426 16.6332 48.1227 20.5074 51.1535C24.3816 54.1842 29.165 55.783 34.0623 55.6839C36.9909 55.6247 39.8547 54.9605 42.4861 53.755C45.427 52.4077 49.1147 52.6408 51.1814 55.1293Z" stroke="#50CD89" stroke-width="40" mask="url(#path-3-inside-3_12422_12784)"/>
</svg>
